<?xml version="1.0" encoding="utf-8" standalone="no"?>
<!DOCTYPE svg PUBLIC "-//W3C//DTD SVG 1.1//EN"
  "http://www.w3.org/Graphics/SVG/1.1/DTD/svg11.dtd">
<svg height="720pt" version="1.1" viewBox="0 0 1152 720" width="1152pt" xmlns="http://www.w3.org/2000/svg" xmlns:xlink="http://www.w3.org/1999/xlink">
 <metadata>
  <rdf:RDF xmlns:cc="http://creativecommons.org/ns#" xmlns:dc="http://purl.org/dc/elements/1.1/" xmlns:rdf="http://www.w3.org/1999/02/22-rdf-syntax-ns#">
   <cc:Work>
    <dc:type rdf:resource="http://purl.org/dc/dcmitype/StillImage"/>
    <dc:date>2023-10-24T11:53:14.885267</dc:date>
    <dc:format>image/svg+xml</dc:format>
    <dc:creator>
     <cc:Agent>
      <dc:title>Matplotlib v3.4.3, https://matplotlib.org/</dc:title>
     </cc:Agent>
    </dc:creator>
   </cc:Work>
  </rdf:RDF>
 </metadata>
 <defs>
  <style type="text/css">*{stroke-linecap:butt;stroke-linejoin:round;}</style>
 </defs>
 <g id="figure_1">
  <g id="patch_1">
   <path d="M 0 720 
L 1152 720 
L 1152 0 
L 0 0 
z
" style="fill:#ffffff;"/>
  </g>
  <g id="axes_1">
   <g id="patch_2">
    <path d="M 144 640.8 
L 1036.8 640.8 
L 1036.8 86.4 
L 144 86.4 
z
" style="fill:#ffffff;"/>
   </g>
   <g id="matplotlib.axis_1">
    <g id="xtick_1">
     <g id="line2d_1">
      <path clip-path="url(#p0d11935743)" d="M 144 640.8 
L 144 86.4 
" style="fill:none;stroke:#000000;stroke-linecap:square;stroke-width:0.8;"/>
     </g>
     <g id="line2d_2">
      <defs>
       <path d="M 0 0 
L 0 3.5 
" id="mc53c81ad64" style="stroke:#000000;stroke-width:0.8;"/>
      </defs>
      <g>
       <use style="stroke:#000000;stroke-width:0.8;" x="144" xlink:href="#mc53c81ad64" y="640.8"/>
      </g>
     </g>
     <g id="text_1">
      <!-- 0 -->
      <g transform="translate(140.81875 655.398438)scale(0.1 -0.1)">
       <defs>
        <path d="M 2034 4250 
Q 1547 4250 1301 3770 
Q 1056 3291 1056 2328 
Q 1056 1369 1301 889 
Q 1547 409 2034 409 
Q 2525 409 2770 889 
Q 3016 1369 3016 2328 
Q 3016 3291 2770 3770 
Q 2525 4250 2034 4250 
z
M 2034 4750 
Q 2819 4750 3233 4129 
Q 3647 3509 3647 2328 
Q 3647 1150 3233 529 
Q 2819 -91 2034 -91 
Q 1250 -91 836 529 
Q 422 1150 422 2328 
Q 422 3509 836 4129 
Q 1250 4750 2034 4750 
z
" id="DejaVuSans-30" transform="scale(0.015625)"/>
       </defs>
       <use xlink:href="#DejaVuSans-30"/>
      </g>
     </g>
    </g>
    <g id="xtick_2">
     <g id="line2d_3">
      <path clip-path="url(#p0d11935743)" d="M 286.848 640.8 
L 286.848 86.4 
" style="fill:none;stroke:#000000;stroke-linecap:square;stroke-width:0.8;"/>
     </g>
     <g id="line2d_4">
      <g>
       <use style="stroke:#000000;stroke-width:0.8;" x="286.848" xlink:href="#mc53c81ad64" y="640.8"/>
      </g>
     </g>
     <g id="text_2">
      <!-- 2 -->
      <g transform="translate(283.66675 655.398438)scale(0.1 -0.1)">
       <defs>
        <path d="M 1228 531 
L 3431 531 
L 3431 0 
L 469 0 
L 469 531 
Q 828 903 1448 1529 
Q 2069 2156 2228 2338 
Q 2531 2678 2651 2914 
Q 2772 3150 2772 3378 
Q 2772 3750 2511 3984 
Q 2250 4219 1831 4219 
Q 1534 4219 1204 4116 
Q 875 4013 500 3803 
L 500 4441 
Q 881 4594 1212 4672 
Q 1544 4750 1819 4750 
Q 2544 4750 2975 4387 
Q 3406 4025 3406 3419 
Q 3406 3131 3298 2873 
Q 3191 2616 2906 2266 
Q 2828 2175 2409 1742 
Q 1991 1309 1228 531 
z
" id="DejaVuSans-32" transform="scale(0.015625)"/>
       </defs>
       <use xlink:href="#DejaVuSans-32"/>
      </g>
     </g>
    </g>
    <g id="xtick_3">
     <g id="line2d_5">
      <path clip-path="url(#p0d11935743)" d="M 429.696 640.8 
L 429.696 86.4 
" style="fill:none;stroke:#000000;stroke-linecap:square;stroke-width:0.8;"/>
     </g>
     <g id="line2d_6">
      <g>
       <use style="stroke:#000000;stroke-width:0.8;" x="429.696" xlink:href="#mc53c81ad64" y="640.8"/>
      </g>
     </g>
     <g id="text_3">
      <!-- 4 -->
      <g transform="translate(426.51475 655.398438)scale(0.1 -0.1)">
       <defs>
        <path d="M 2419 4116 
L 825 1625 
L 2419 1625 
L 2419 4116 
z
M 2253 4666 
L 3047 4666 
L 3047 1625 
L 3713 1625 
L 3713 1100 
L 3047 1100 
L 3047 0 
L 2419 0 
L 2419 1100 
L 313 1100 
L 313 1709 
L 2253 4666 
z
" id="DejaVuSans-34" transform="scale(0.015625)"/>
       </defs>
       <use xlink:href="#DejaVuSans-34"/>
      </g>
     </g>
    </g>
    <g id="xtick_4">
     <g id="line2d_7">
      <path clip-path="url(#p0d11935743)" d="M 572.544 640.8 
L 572.544 86.4 
" style="fill:none;stroke:#000000;stroke-linecap:square;stroke-width:0.8;"/>
     </g>
     <g id="line2d_8">
      <g>
       <use style="stroke:#000000;stroke-width:0.8;" x="572.544" xlink:href="#mc53c81ad64" y="640.8"/>
      </g>
     </g>
     <g id="text_4">
      <!-- 6 -->
      <g transform="translate(569.36275 655.398438)scale(0.1 -0.1)">
       <defs>
        <path d="M 2113 2584 
Q 1688 2584 1439 2293 
Q 1191 2003 1191 1497 
Q 1191 994 1439 701 
Q 1688 409 2113 409 
Q 2538 409 2786 701 
Q 3034 994 3034 1497 
Q 3034 2003 2786 2293 
Q 2538 2584 2113 2584 
z
M 3366 4563 
L 3366 3988 
Q 3128 4100 2886 4159 
Q 2644 4219 2406 4219 
Q 1781 4219 1451 3797 
Q 1122 3375 1075 2522 
Q 1259 2794 1537 2939 
Q 1816 3084 2150 3084 
Q 2853 3084 3261 2657 
Q 3669 2231 3669 1497 
Q 3669 778 3244 343 
Q 2819 -91 2113 -91 
Q 1303 -91 875 529 
Q 447 1150 447 2328 
Q 447 3434 972 4092 
Q 1497 4750 2381 4750 
Q 2619 4750 2861 4703 
Q 3103 4656 3366 4563 
z
" id="DejaVuSans-36" transform="scale(0.015625)"/>
       </defs>
       <use xlink:href="#DejaVuSans-36"/>
      </g>
     </g>
    </g>
    <g id="xtick_5">
     <g id="line2d_9">
      <path clip-path="url(#p0d11935743)" d="M 715.392 640.8 
L 715.392 86.4 
" style="fill:none;stroke:#000000;stroke-linecap:square;stroke-width:0.8;"/>
     </g>
     <g id="line2d_10">
      <g>
       <use style="stroke:#000000;stroke-width:0.8;" x="715.392" xlink:href="#mc53c81ad64" y="640.8"/>
      </g>
     </g>
     <g id="text_5">
      <!-- 8 -->
      <g transform="translate(712.21075 655.398438)scale(0.1 -0.1)">
       <defs>
        <path d="M 2034 2216 
Q 1584 2216 1326 1975 
Q 1069 1734 1069 1313 
Q 1069 891 1326 650 
Q 1584 409 2034 409 
Q 2484 409 2743 651 
Q 3003 894 3003 1313 
Q 3003 1734 2745 1975 
Q 2488 2216 2034 2216 
z
M 1403 2484 
Q 997 2584 770 2862 
Q 544 3141 544 3541 
Q 544 4100 942 4425 
Q 1341 4750 2034 4750 
Q 2731 4750 3128 4425 
Q 3525 4100 3525 3541 
Q 3525 3141 3298 2862 
Q 3072 2584 2669 2484 
Q 3125 2378 3379 2068 
Q 3634 1759 3634 1313 
Q 3634 634 3220 271 
Q 2806 -91 2034 -91 
Q 1263 -91 848 271 
Q 434 634 434 1313 
Q 434 1759 690 2068 
Q 947 2378 1403 2484 
z
M 1172 3481 
Q 1172 3119 1398 2916 
Q 1625 2713 2034 2713 
Q 2441 2713 2670 2916 
Q 2900 3119 2900 3481 
Q 2900 3844 2670 4047 
Q 2441 4250 2034 4250 
Q 1625 4250 1398 4047 
Q 1172 3844 1172 3481 
z
" id="DejaVuSans-38" transform="scale(0.015625)"/>
       </defs>
       <use xlink:href="#DejaVuSans-38"/>
      </g>
     </g>
    </g>
    <g id="xtick_6">
     <g id="line2d_11">
      <path clip-path="url(#p0d11935743)" d="M 858.24 640.8 
L 858.24 86.4 
" style="fill:none;stroke:#000000;stroke-linecap:square;stroke-width:0.8;"/>
     </g>
     <g id="line2d_12">
      <g>
       <use style="stroke:#000000;stroke-width:0.8;" x="858.24" xlink:href="#mc53c81ad64" y="640.8"/>
      </g>
     </g>
     <g id="text_6">
      <!-- 10 -->
      <g transform="translate(851.8775 655.398438)scale(0.1 -0.1)">
       <defs>
        <path d="M 794 531 
L 1825 531 
L 1825 4091 
L 703 3866 
L 703 4441 
L 1819 4666 
L 2450 4666 
L 2450 531 
L 3481 531 
L 3481 0 
L 794 0 
L 794 531 
z
" id="DejaVuSans-31" transform="scale(0.015625)"/>
       </defs>
       <use xlink:href="#DejaVuSans-31"/>
       <use x="63.623047" xlink:href="#DejaVuSans-30"/>
      </g>
     </g>
    </g>
    <g id="xtick_7">
     <g id="line2d_13">
      <path clip-path="url(#p0d11935743)" d="M 1001.088 640.8 
L 1001.088 86.4 
" style="fill:none;stroke:#000000;stroke-linecap:square;stroke-width:0.8;"/>
     </g>
     <g id="line2d_14">
      <g>
       <use style="stroke:#000000;stroke-width:0.8;" x="1001.088" xlink:href="#mc53c81ad64" y="640.8"/>
      </g>
     </g>
     <g id="text_7">
      <!-- 12 -->
      <g transform="translate(994.7255 655.398438)scale(0.1 -0.1)">
       <use xlink:href="#DejaVuSans-31"/>
       <use x="63.623047" xlink:href="#DejaVuSans-32"/>
      </g>
     </g>
    </g>
    <g id="xtick_8">
     <g id="line2d_15">
      <path clip-path="url(#p0d11935743)" d="M 179.712 640.8 
L 179.712 86.4 
" style="fill:none;stroke:#808080;stroke-dasharray:0.8,1.32;stroke-dashoffset:0;stroke-width:0.8;"/>
     </g>
     <g id="line2d_16">
      <defs>
       <path d="M 0 0 
L 0 2 
" id="mea4fce7d02" style="stroke:#000000;stroke-width:0.6;"/>
      </defs>
      <g>
       <use style="stroke:#000000;stroke-width:0.6;" x="179.712" xlink:href="#mea4fce7d02" y="640.8"/>
      </g>
     </g>
    </g>
    <g id="xtick_9">
     <g id="line2d_17">
      <path clip-path="url(#p0d11935743)" d="M 215.424 640.8 
L 215.424 86.4 
" style="fill:none;stroke:#808080;stroke-dasharray:0.8,1.32;stroke-dashoffset:0;stroke-width:0.8;"/>
     </g>
     <g id="line2d_18">
      <g>
       <use style="stroke:#000000;stroke-width:0.6;" x="215.424" xlink:href="#mea4fce7d02" y="640.8"/>
      </g>
     </g>
    </g>
    <g id="xtick_10">
     <g id="line2d_19">
      <path clip-path="url(#p0d11935743)" d="M 251.136 640.8 
L 251.136 86.4 
" style="fill:none;stroke:#808080;stroke-dasharray:0.8,1.32;stroke-dashoffset:0;stroke-width:0.8;"/>
     </g>
     <g id="line2d_20">
      <g>
       <use style="stroke:#000000;stroke-width:0.6;" x="251.136" xlink:href="#mea4fce7d02" y="640.8"/>
      </g>
     </g>
    </g>
    <g id="xtick_11">
     <g id="line2d_21">
      <path clip-path="url(#p0d11935743)" d="M 322.56 640.8 
L 322.56 86.4 
" style="fill:none;stroke:#808080;stroke-dasharray:0.8,1.32;stroke-dashoffset:0;stroke-width:0.8;"/>
     </g>
     <g id="line2d_22">
      <g>
       <use style="stroke:#000000;stroke-width:0.6;" x="322.56" xlink:href="#mea4fce7d02" y="640.8"/>
      </g>
     </g>
    </g>
    <g id="xtick_12">
     <g id="line2d_23">
      <path clip-path="url(#p0d11935743)" d="M 358.272 640.8 
L 358.272 86.4 
" style="fill:none;stroke:#808080;stroke-dasharray:0.8,1.32;stroke-dashoffset:0;stroke-width:0.8;"/>
     </g>
     <g id="line2d_24">
      <g>
       <use style="stroke:#000000;stroke-width:0.6;" x="358.272" xlink:href="#mea4fce7d02" y="640.8"/>
      </g>
     </g>
    </g>
    <g id="xtick_13">
     <g id="line2d_25">
      <path clip-path="url(#p0d11935743)" d="M 393.984 640.8 
L 393.984 86.4 
" style="fill:none;stroke:#808080;stroke-dasharray:0.8,1.32;stroke-dashoffset:0;stroke-width:0.8;"/>
     </g>
     <g id="line2d_26">
      <g>
       <use style="stroke:#000000;stroke-width:0.6;" x="393.984" xlink:href="#mea4fce7d02" y="640.8"/>
      </g>
     </g>
    </g>
    <g id="xtick_14">
     <g id="line2d_27">
      <path clip-path="url(#p0d11935743)" d="M 465.408 640.8 
L 465.408 86.4 
" style="fill:none;stroke:#808080;stroke-dasharray:0.8,1.32;stroke-dashoffset:0;stroke-width:0.8;"/>
     </g>
     <g id="line2d_28">
      <g>
       <use style="stroke:#000000;stroke-width:0.6;" x="465.408" xlink:href="#mea4fce7d02" y="640.8"/>
      </g>
     </g>
    </g>
    <g id="xtick_15">
     <g id="line2d_29">
      <path clip-path="url(#p0d11935743)" d="M 501.12 640.8 
L 501.12 86.4 
" style="fill:none;stroke:#808080;stroke-dasharray:0.8,1.32;stroke-dashoffset:0;stroke-width:0.8;"/>
     </g>
     <g id="line2d_30">
      <g>
       <use style="stroke:#000000;stroke-width:0.6;" x="501.12" xlink:href="#mea4fce7d02" y="640.8"/>
      </g>
     </g>
    </g>
    <g id="xtick_16">
     <g id="line2d_31">
      <path clip-path="url(#p0d11935743)" d="M 536.832 640.8 
L 536.832 86.4 
" style="fill:none;stroke:#808080;stroke-dasharray:0.8,1.32;stroke-dashoffset:0;stroke-width:0.8;"/>
     </g>
     <g id="line2d_32">
      <g>
       <use style="stroke:#000000;stroke-width:0.6;" x="536.832" xlink:href="#mea4fce7d02" y="640.8"/>
      </g>
     </g>
    </g>
    <g id="xtick_17">
     <g id="line2d_33">
      <path clip-path="url(#p0d11935743)" d="M 608.256 640.8 
L 608.256 86.4 
" style="fill:none;stroke:#808080;stroke-dasharray:0.8,1.32;stroke-dashoffset:0;stroke-width:0.8;"/>
     </g>
     <g id="line2d_34">
      <g>
       <use style="stroke:#000000;stroke-width:0.6;" x="608.256" xlink:href="#mea4fce7d02" y="640.8"/>
      </g>
     </g>
    </g>
    <g id="xtick_18">
     <g id="line2d_35">
      <path clip-path="url(#p0d11935743)" d="M 643.968 640.8 
L 643.968 86.4 
" style="fill:none;stroke:#808080;stroke-dasharray:0.8,1.32;stroke-dashoffset:0;stroke-width:0.8;"/>
     </g>
     <g id="line2d_36">
      <g>
       <use style="stroke:#000000;stroke-width:0.6;" x="643.968" xlink:href="#mea4fce7d02" y="640.8"/>
      </g>
     </g>
    </g>
    <g id="xtick_19">
     <g id="line2d_37">
      <path clip-path="url(#p0d11935743)" d="M 679.68 640.8 
L 679.68 86.4 
" style="fill:none;stroke:#808080;stroke-dasharray:0.8,1.32;stroke-dashoffset:0;stroke-width:0.8;"/>
     </g>
     <g id="line2d_38">
      <g>
       <use style="stroke:#000000;stroke-width:0.6;" x="679.68" xlink:href="#mea4fce7d02" y="640.8"/>
      </g>
     </g>
    </g>
    <g id="xtick_20">
     <g id="line2d_39">
      <path clip-path="url(#p0d11935743)" d="M 751.104 640.8 
L 751.104 86.4 
" style="fill:none;stroke:#808080;stroke-dasharray:0.8,1.32;stroke-dashoffset:0;stroke-width:0.8;"/>
     </g>
     <g id="line2d_40">
      <g>
       <use style="stroke:#000000;stroke-width:0.6;" x="751.104" xlink:href="#mea4fce7d02" y="640.8"/>
      </g>
     </g>
    </g>
    <g id="xtick_21">
     <g id="line2d_41">
      <path clip-path="url(#p0d11935743)" d="M 786.816 640.8 
L 786.816 86.4 
" style="fill:none;stroke:#808080;stroke-dasharray:0.8,1.32;stroke-dashoffset:0;stroke-width:0.8;"/>
     </g>
     <g id="line2d_42">
      <g>
       <use style="stroke:#000000;stroke-width:0.6;" x="786.816" xlink:href="#mea4fce7d02" y="640.8"/>
      </g>
     </g>
    </g>
    <g id="xtick_22">
     <g id="line2d_43">
      <path clip-path="url(#p0d11935743)" d="M 822.528 640.8 
L 822.528 86.4 
" style="fill:none;stroke:#808080;stroke-dasharray:0.8,1.32;stroke-dashoffset:0;stroke-width:0.8;"/>
     </g>
     <g id="line2d_44">
      <g>
       <use style="stroke:#000000;stroke-width:0.6;" x="822.528" xlink:href="#mea4fce7d02" y="640.8"/>
      </g>
     </g>
    </g>
    <g id="xtick_23">
     <g id="line2d_45">
      <path clip-path="url(#p0d11935743)" d="M 893.952 640.8 
L 893.952 86.4 
" style="fill:none;stroke:#808080;stroke-dasharray:0.8,1.32;stroke-dashoffset:0;stroke-width:0.8;"/>
     </g>
     <g id="line2d_46">
      <g>
       <use style="stroke:#000000;stroke-width:0.6;" x="893.952" xlink:href="#mea4fce7d02" y="640.8"/>
      </g>
     </g>
    </g>
    <g id="xtick_24">
     <g id="line2d_47">
      <path clip-path="url(#p0d11935743)" d="M 929.664 640.8 
L 929.664 86.4 
" style="fill:none;stroke:#808080;stroke-dasharray:0.8,1.32;stroke-dashoffset:0;stroke-width:0.8;"/>
     </g>
     <g id="line2d_48">
      <g>
       <use style="stroke:#000000;stroke-width:0.6;" x="929.664" xlink:href="#mea4fce7d02" y="640.8"/>
      </g>
     </g>
    </g>
    <g id="xtick_25">
     <g id="line2d_49">
      <path clip-path="url(#p0d11935743)" d="M 965.376 640.8 
L 965.376 86.4 
" style="fill:none;stroke:#808080;stroke-dasharray:0.8,1.32;stroke-dashoffset:0;stroke-width:0.8;"/>
     </g>
     <g id="line2d_50">
      <g>
       <use style="stroke:#000000;stroke-width:0.6;" x="965.376" xlink:href="#mea4fce7d02" y="640.8"/>
      </g>
     </g>
    </g>
    <g id="xtick_26">
     <g id="line2d_51">
      <path clip-path="url(#p0d11935743)" d="M 1036.8 640.8 
L 1036.8 86.4 
" style="fill:none;stroke:#808080;stroke-dasharray:0.8,1.32;stroke-dashoffset:0;stroke-width:0.8;"/>
     </g>
     <g id="line2d_52">
      <g>
       <use style="stroke:#000000;stroke-width:0.6;" x="1036.8" xlink:href="#mea4fce7d02" y="640.8"/>
      </g>
     </g>
    </g>
    <g id="text_8">
     <!-- t, seconds -->
     <g transform="translate(564.824219 669.076563)scale(0.1 -0.1)">
      <defs>
       <path d="M 1172 4494 
L 1172 3500 
L 2356 3500 
L 2356 3053 
L 1172 3053 
L 1172 1153 
Q 1172 725 1289 603 
Q 1406 481 1766 481 
L 2356 481 
L 2356 0 
L 1766 0 
Q 1100 0 847 248 
Q 594 497 594 1153 
L 594 3053 
L 172 3053 
L 172 3500 
L 594 3500 
L 594 4494 
L 1172 4494 
z
" id="DejaVuSans-74" transform="scale(0.015625)"/>
       <path d="M 750 794 
L 1409 794 
L 1409 256 
L 897 -744 
L 494 -744 
L 750 256 
L 750 794 
z
" id="DejaVuSans-2c" transform="scale(0.015625)"/>
       <path id="DejaVuSans-20" transform="scale(0.015625)"/>
       <path d="M 2834 3397 
L 2834 2853 
Q 2591 2978 2328 3040 
Q 2066 3103 1784 3103 
Q 1356 3103 1142 2972 
Q 928 2841 928 2578 
Q 928 2378 1081 2264 
Q 1234 2150 1697 2047 
L 1894 2003 
Q 2506 1872 2764 1633 
Q 3022 1394 3022 966 
Q 3022 478 2636 193 
Q 2250 -91 1575 -91 
Q 1294 -91 989 -36 
Q 684 19 347 128 
L 347 722 
Q 666 556 975 473 
Q 1284 391 1588 391 
Q 1994 391 2212 530 
Q 2431 669 2431 922 
Q 2431 1156 2273 1281 
Q 2116 1406 1581 1522 
L 1381 1569 
Q 847 1681 609 1914 
Q 372 2147 372 2553 
Q 372 3047 722 3315 
Q 1072 3584 1716 3584 
Q 2034 3584 2315 3537 
Q 2597 3491 2834 3397 
z
" id="DejaVuSans-73" transform="scale(0.015625)"/>
       <path d="M 3597 1894 
L 3597 1613 
L 953 1613 
Q 991 1019 1311 708 
Q 1631 397 2203 397 
Q 2534 397 2845 478 
Q 3156 559 3463 722 
L 3463 178 
Q 3153 47 2828 -22 
Q 2503 -91 2169 -91 
Q 1331 -91 842 396 
Q 353 884 353 1716 
Q 353 2575 817 3079 
Q 1281 3584 2069 3584 
Q 2775 3584 3186 3129 
Q 3597 2675 3597 1894 
z
M 3022 2063 
Q 3016 2534 2758 2815 
Q 2500 3097 2075 3097 
Q 1594 3097 1305 2825 
Q 1016 2553 972 2059 
L 3022 2063 
z
" id="DejaVuSans-65" transform="scale(0.015625)"/>
       <path d="M 3122 3366 
L 3122 2828 
Q 2878 2963 2633 3030 
Q 2388 3097 2138 3097 
Q 1578 3097 1268 2742 
Q 959 2388 959 1747 
Q 959 1106 1268 751 
Q 1578 397 2138 397 
Q 2388 397 2633 464 
Q 2878 531 3122 666 
L 3122 134 
Q 2881 22 2623 -34 
Q 2366 -91 2075 -91 
Q 1284 -91 818 406 
Q 353 903 353 1747 
Q 353 2603 823 3093 
Q 1294 3584 2113 3584 
Q 2378 3584 2631 3529 
Q 2884 3475 3122 3366 
z
" id="DejaVuSans-63" transform="scale(0.015625)"/>
       <path d="M 1959 3097 
Q 1497 3097 1228 2736 
Q 959 2375 959 1747 
Q 959 1119 1226 758 
Q 1494 397 1959 397 
Q 2419 397 2687 759 
Q 2956 1122 2956 1747 
Q 2956 2369 2687 2733 
Q 2419 3097 1959 3097 
z
M 1959 3584 
Q 2709 3584 3137 3096 
Q 3566 2609 3566 1747 
Q 3566 888 3137 398 
Q 2709 -91 1959 -91 
Q 1206 -91 779 398 
Q 353 888 353 1747 
Q 353 2609 779 3096 
Q 1206 3584 1959 3584 
z
" id="DejaVuSans-6f" transform="scale(0.015625)"/>
       <path d="M 3513 2113 
L 3513 0 
L 2938 0 
L 2938 2094 
Q 2938 2591 2744 2837 
Q 2550 3084 2163 3084 
Q 1697 3084 1428 2787 
Q 1159 2491 1159 1978 
L 1159 0 
L 581 0 
L 581 3500 
L 1159 3500 
L 1159 2956 
Q 1366 3272 1645 3428 
Q 1925 3584 2291 3584 
Q 2894 3584 3203 3211 
Q 3513 2838 3513 2113 
z
" id="DejaVuSans-6e" transform="scale(0.015625)"/>
       <path d="M 2906 2969 
L 2906 4863 
L 3481 4863 
L 3481 0 
L 2906 0 
L 2906 525 
Q 2725 213 2448 61 
Q 2172 -91 1784 -91 
Q 1150 -91 751 415 
Q 353 922 353 1747 
Q 353 2572 751 3078 
Q 1150 3584 1784 3584 
Q 2172 3584 2448 3432 
Q 2725 3281 2906 2969 
z
M 947 1747 
Q 947 1113 1208 752 
Q 1469 391 1925 391 
Q 2381 391 2643 752 
Q 2906 1113 2906 1747 
Q 2906 2381 2643 2742 
Q 2381 3103 1925 3103 
Q 1469 3103 1208 2742 
Q 947 2381 947 1747 
z
" id="DejaVuSans-64" transform="scale(0.015625)"/>
      </defs>
      <use xlink:href="#DejaVuSans-74"/>
      <use x="39.208984" xlink:href="#DejaVuSans-2c"/>
      <use x="70.996094" xlink:href="#DejaVuSans-20"/>
      <use x="102.783203" xlink:href="#DejaVuSans-73"/>
      <use x="154.882812" xlink:href="#DejaVuSans-65"/>
      <use x="216.40625" xlink:href="#DejaVuSans-63"/>
      <use x="271.386719" xlink:href="#DejaVuSans-6f"/>
      <use x="332.568359" xlink:href="#DejaVuSans-6e"/>
      <use x="395.947266" xlink:href="#DejaVuSans-64"/>
      <use x="459.423828" xlink:href="#DejaVuSans-73"/>
     </g>
    </g>
   </g>
   <g id="matplotlib.axis_2">
    <g id="ytick_1">
     <g id="line2d_53">
      <path clip-path="url(#p0d11935743)" d="M 144 640.8 
L 1036.8 640.8 
" style="fill:none;stroke:#000000;stroke-linecap:square;stroke-width:0.8;"/>
     </g>
     <g id="line2d_54">
      <defs>
       <path d="M 0 0 
L -3.5 0 
" id="m8b38a7639c" style="stroke:#000000;stroke-width:0.8;"/>
      </defs>
      <g>
       <use style="stroke:#000000;stroke-width:0.8;" x="144" xlink:href="#m8b38a7639c" y="640.8"/>
      </g>
     </g>
     <g id="text_9">
      <!-- 0.0 -->
      <g transform="translate(121.096875 644.599219)scale(0.1 -0.1)">
       <defs>
        <path d="M 684 794 
L 1344 794 
L 1344 0 
L 684 0 
L 684 794 
z
" id="DejaVuSans-2e" transform="scale(0.015625)"/>
       </defs>
       <use xlink:href="#DejaVuSans-30"/>
       <use x="63.623047" xlink:href="#DejaVuSans-2e"/>
       <use x="95.410156" xlink:href="#DejaVuSans-30"/>
      </g>
     </g>
    </g>
    <g id="ytick_2">
     <g id="line2d_55">
      <path clip-path="url(#p0d11935743)" d="M 144 541.8 
L 1036.8 541.8 
" style="fill:none;stroke:#000000;stroke-linecap:square;stroke-width:0.8;"/>
     </g>
     <g id="line2d_56">
      <g>
       <use style="stroke:#000000;stroke-width:0.8;" x="144" xlink:href="#m8b38a7639c" y="541.8"/>
      </g>
     </g>
     <g id="text_10">
      <!-- 0.5 -->
      <g transform="translate(121.096875 545.599219)scale(0.1 -0.1)">
       <defs>
        <path d="M 691 4666 
L 3169 4666 
L 3169 4134 
L 1269 4134 
L 1269 2991 
Q 1406 3038 1543 3061 
Q 1681 3084 1819 3084 
Q 2600 3084 3056 2656 
Q 3513 2228 3513 1497 
Q 3513 744 3044 326 
Q 2575 -91 1722 -91 
Q 1428 -91 1123 -41 
Q 819 9 494 109 
L 494 744 
Q 775 591 1075 516 
Q 1375 441 1709 441 
Q 2250 441 2565 725 
Q 2881 1009 2881 1497 
Q 2881 1984 2565 2268 
Q 2250 2553 1709 2553 
Q 1456 2553 1204 2497 
Q 953 2441 691 2322 
L 691 4666 
z
" id="DejaVuSans-35" transform="scale(0.015625)"/>
       </defs>
       <use xlink:href="#DejaVuSans-30"/>
       <use x="63.623047" xlink:href="#DejaVuSans-2e"/>
       <use x="95.410156" xlink:href="#DejaVuSans-35"/>
      </g>
     </g>
    </g>
    <g id="ytick_3">
     <g id="line2d_57">
      <path clip-path="url(#p0d11935743)" d="M 144 442.8 
L 1036.8 442.8 
" style="fill:none;stroke:#000000;stroke-linecap:square;stroke-width:0.8;"/>
     </g>
     <g id="line2d_58">
      <g>
       <use style="stroke:#000000;stroke-width:0.8;" x="144" xlink:href="#m8b38a7639c" y="442.8"/>
      </g>
     </g>
     <g id="text_11">
      <!-- 1.0 -->
      <g transform="translate(121.096875 446.599219)scale(0.1 -0.1)">
       <use xlink:href="#DejaVuSans-31"/>
       <use x="63.623047" xlink:href="#DejaVuSans-2e"/>
       <use x="95.410156" xlink:href="#DejaVuSans-30"/>
      </g>
     </g>
    </g>
    <g id="ytick_4">
     <g id="line2d_59">
      <path clip-path="url(#p0d11935743)" d="M 144 343.8 
L 1036.8 343.8 
" style="fill:none;stroke:#000000;stroke-linecap:square;stroke-width:0.8;"/>
     </g>
     <g id="line2d_60">
      <g>
       <use style="stroke:#000000;stroke-width:0.8;" x="144" xlink:href="#m8b38a7639c" y="343.8"/>
      </g>
     </g>
     <g id="text_12">
      <!-- 1.5 -->
      <g transform="translate(121.096875 347.599219)scale(0.1 -0.1)">
       <use xlink:href="#DejaVuSans-31"/>
       <use x="63.623047" xlink:href="#DejaVuSans-2e"/>
       <use x="95.410156" xlink:href="#DejaVuSans-35"/>
      </g>
     </g>
    </g>
    <g id="ytick_5">
     <g id="line2d_61">
      <path clip-path="url(#p0d11935743)" d="M 144 244.8 
L 1036.8 244.8 
" style="fill:none;stroke:#000000;stroke-linecap:square;stroke-width:0.8;"/>
     </g>
     <g id="line2d_62">
      <g>
       <use style="stroke:#000000;stroke-width:0.8;" x="144" xlink:href="#m8b38a7639c" y="244.8"/>
      </g>
     </g>
     <g id="text_13">
      <!-- 2.0 -->
      <g transform="translate(121.096875 248.599219)scale(0.1 -0.1)">
       <use xlink:href="#DejaVuSans-32"/>
       <use x="63.623047" xlink:href="#DejaVuSans-2e"/>
       <use x="95.410156" xlink:href="#DejaVuSans-30"/>
      </g>
     </g>
    </g>
    <g id="ytick_6">
     <g id="line2d_63">
      <path clip-path="url(#p0d11935743)" d="M 144 145.8 
L 1036.8 145.8 
" style="fill:none;stroke:#000000;stroke-linecap:square;stroke-width:0.8;"/>
     </g>
     <g id="line2d_64">
      <g>
       <use style="stroke:#000000;stroke-width:0.8;" x="144" xlink:href="#m8b38a7639c" y="145.8"/>
      </g>
     </g>
     <g id="text_14">
      <!-- 2.5 -->
      <g transform="translate(121.096875 149.599219)scale(0.1 -0.1)">
       <use xlink:href="#DejaVuSans-32"/>
       <use x="63.623047" xlink:href="#DejaVuSans-2e"/>
       <use x="95.410156" xlink:href="#DejaVuSans-35"/>
      </g>
     </g>
    </g>
    <g id="ytick_7">
     <g id="line2d_65">
      <path clip-path="url(#p0d11935743)" d="M 144 621 
L 1036.8 621 
" style="fill:none;stroke:#808080;stroke-dasharray:0.8,1.32;stroke-dashoffset:0;stroke-width:0.8;"/>
     </g>
     <g id="line2d_66">
      <defs>
       <path d="M 0 0 
L -2 0 
" id="md2906bfa15" style="stroke:#000000;stroke-width:0.6;"/>
      </defs>
      <g>
       <use style="stroke:#000000;stroke-width:0.6;" x="144" xlink:href="#md2906bfa15" y="621"/>
      </g>
     </g>
    </g>
    <g id="ytick_8">
     <g id="line2d_67">
      <path clip-path="url(#p0d11935743)" d="M 144 601.2 
L 1036.8 601.2 
" style="fill:none;stroke:#808080;stroke-dasharray:0.8,1.32;stroke-dashoffset:0;stroke-width:0.8;"/>
     </g>
     <g id="line2d_68">
      <g>
       <use style="stroke:#000000;stroke-width:0.6;" x="144" xlink:href="#md2906bfa15" y="601.2"/>
      </g>
     </g>
    </g>
    <g id="ytick_9">
     <g id="line2d_69">
      <path clip-path="url(#p0d11935743)" d="M 144 581.4 
L 1036.8 581.4 
" style="fill:none;stroke:#808080;stroke-dasharray:0.8,1.32;stroke-dashoffset:0;stroke-width:0.8;"/>
     </g>
     <g id="line2d_70">
      <g>
       <use style="stroke:#000000;stroke-width:0.6;" x="144" xlink:href="#md2906bfa15" y="581.4"/>
      </g>
     </g>
    </g>
    <g id="ytick_10">
     <g id="line2d_71">
      <path clip-path="url(#p0d11935743)" d="M 144 561.6 
L 1036.8 561.6 
" style="fill:none;stroke:#808080;stroke-dasharray:0.8,1.32;stroke-dashoffset:0;stroke-width:0.8;"/>
     </g>
     <g id="line2d_72">
      <g>
       <use style="stroke:#000000;stroke-width:0.6;" x="144" xlink:href="#md2906bfa15" y="561.6"/>
      </g>
     </g>
    </g>
    <g id="ytick_11">
     <g id="line2d_73">
      <path clip-path="url(#p0d11935743)" d="M 144 522 
L 1036.8 522 
" style="fill:none;stroke:#808080;stroke-dasharray:0.8,1.32;stroke-dashoffset:0;stroke-width:0.8;"/>
     </g>
     <g id="line2d_74">
      <g>
       <use style="stroke:#000000;stroke-width:0.6;" x="144" xlink:href="#md2906bfa15" y="522"/>
      </g>
     </g>
    </g>
    <g id="ytick_12">
     <g id="line2d_75">
      <path clip-path="url(#p0d11935743)" d="M 144 502.2 
L 1036.8 502.2 
" style="fill:none;stroke:#808080;stroke-dasharray:0.8,1.32;stroke-dashoffset:0;stroke-width:0.8;"/>
     </g>
     <g id="line2d_76">
      <g>
       <use style="stroke:#000000;stroke-width:0.6;" x="144" xlink:href="#md2906bfa15" y="502.2"/>
      </g>
     </g>
    </g>
    <g id="ytick_13">
     <g id="line2d_77">
      <path clip-path="url(#p0d11935743)" d="M 144 482.4 
L 1036.8 482.4 
" style="fill:none;stroke:#808080;stroke-dasharray:0.8,1.32;stroke-dashoffset:0;stroke-width:0.8;"/>
     </g>
     <g id="line2d_78">
      <g>
       <use style="stroke:#000000;stroke-width:0.6;" x="144" xlink:href="#md2906bfa15" y="482.4"/>
      </g>
     </g>
    </g>
    <g id="ytick_14">
     <g id="line2d_79">
      <path clip-path="url(#p0d11935743)" d="M 144 462.6 
L 1036.8 462.6 
" style="fill:none;stroke:#808080;stroke-dasharray:0.8,1.32;stroke-dashoffset:0;stroke-width:0.8;"/>
     </g>
     <g id="line2d_80">
      <g>
       <use style="stroke:#000000;stroke-width:0.6;" x="144" xlink:href="#md2906bfa15" y="462.6"/>
      </g>
     </g>
    </g>
    <g id="ytick_15">
     <g id="line2d_81">
      <path clip-path="url(#p0d11935743)" d="M 144 423 
L 1036.8 423 
" style="fill:none;stroke:#808080;stroke-dasharray:0.8,1.32;stroke-dashoffset:0;stroke-width:0.8;"/>
     </g>
     <g id="line2d_82">
      <g>
       <use style="stroke:#000000;stroke-width:0.6;" x="144" xlink:href="#md2906bfa15" y="423"/>
      </g>
     </g>
    </g>
    <g id="ytick_16">
     <g id="line2d_83">
      <path clip-path="url(#p0d11935743)" d="M 144 403.2 
L 1036.8 403.2 
" style="fill:none;stroke:#808080;stroke-dasharray:0.8,1.32;stroke-dashoffset:0;stroke-width:0.8;"/>
     </g>
     <g id="line2d_84">
      <g>
       <use style="stroke:#000000;stroke-width:0.6;" x="144" xlink:href="#md2906bfa15" y="403.2"/>
      </g>
     </g>
    </g>
    <g id="ytick_17">
     <g id="line2d_85">
      <path clip-path="url(#p0d11935743)" d="M 144 383.4 
L 1036.8 383.4 
" style="fill:none;stroke:#808080;stroke-dasharray:0.8,1.32;stroke-dashoffset:0;stroke-width:0.8;"/>
     </g>
     <g id="line2d_86">
      <g>
       <use style="stroke:#000000;stroke-width:0.6;" x="144" xlink:href="#md2906bfa15" y="383.4"/>
      </g>
     </g>
    </g>
    <g id="ytick_18">
     <g id="line2d_87">
      <path clip-path="url(#p0d11935743)" d="M 144 363.6 
L 1036.8 363.6 
" style="fill:none;stroke:#808080;stroke-dasharray:0.8,1.32;stroke-dashoffset:0;stroke-width:0.8;"/>
     </g>
     <g id="line2d_88">
      <g>
       <use style="stroke:#000000;stroke-width:0.6;" x="144" xlink:href="#md2906bfa15" y="363.6"/>
      </g>
     </g>
    </g>
    <g id="ytick_19">
     <g id="line2d_89">
      <path clip-path="url(#p0d11935743)" d="M 144 324 
L 1036.8 324 
" style="fill:none;stroke:#808080;stroke-dasharray:0.8,1.32;stroke-dashoffset:0;stroke-width:0.8;"/>
     </g>
     <g id="line2d_90">
      <g>
       <use style="stroke:#000000;stroke-width:0.6;" x="144" xlink:href="#md2906bfa15" y="324"/>
      </g>
     </g>
    </g>
    <g id="ytick_20">
     <g id="line2d_91">
      <path clip-path="url(#p0d11935743)" d="M 144 304.2 
L 1036.8 304.2 
" style="fill:none;stroke:#808080;stroke-dasharray:0.8,1.32;stroke-dashoffset:0;stroke-width:0.8;"/>
     </g>
     <g id="line2d_92">
      <g>
       <use style="stroke:#000000;stroke-width:0.6;" x="144" xlink:href="#md2906bfa15" y="304.2"/>
      </g>
     </g>
    </g>
    <g id="ytick_21">
     <g id="line2d_93">
      <path clip-path="url(#p0d11935743)" d="M 144 284.4 
L 1036.8 284.4 
" style="fill:none;stroke:#808080;stroke-dasharray:0.8,1.32;stroke-dashoffset:0;stroke-width:0.8;"/>
     </g>
     <g id="line2d_94">
      <g>
       <use style="stroke:#000000;stroke-width:0.6;" x="144" xlink:href="#md2906bfa15" y="284.4"/>
      </g>
     </g>
    </g>
    <g id="ytick_22">
     <g id="line2d_95">
      <path clip-path="url(#p0d11935743)" d="M 144 264.6 
L 1036.8 264.6 
" style="fill:none;stroke:#808080;stroke-dasharray:0.8,1.32;stroke-dashoffset:0;stroke-width:0.8;"/>
     </g>
     <g id="line2d_96">
      <g>
       <use style="stroke:#000000;stroke-width:0.6;" x="144" xlink:href="#md2906bfa15" y="264.6"/>
      </g>
     </g>
    </g>
    <g id="ytick_23">
     <g id="line2d_97">
      <path clip-path="url(#p0d11935743)" d="M 144 225 
L 1036.8 225 
" style="fill:none;stroke:#808080;stroke-dasharray:0.8,1.32;stroke-dashoffset:0;stroke-width:0.8;"/>
     </g>
     <g id="line2d_98">
      <g>
       <use style="stroke:#000000;stroke-width:0.6;" x="144" xlink:href="#md2906bfa15" y="225"/>
      </g>
     </g>
    </g>
    <g id="ytick_24">
     <g id="line2d_99">
      <path clip-path="url(#p0d11935743)" d="M 144 205.2 
L 1036.8 205.2 
" style="fill:none;stroke:#808080;stroke-dasharray:0.8,1.32;stroke-dashoffset:0;stroke-width:0.8;"/>
     </g>
     <g id="line2d_100">
      <g>
       <use style="stroke:#000000;stroke-width:0.6;" x="144" xlink:href="#md2906bfa15" y="205.2"/>
      </g>
     </g>
    </g>
    <g id="ytick_25">
     <g id="line2d_101">
      <path clip-path="url(#p0d11935743)" d="M 144 185.4 
L 1036.8 185.4 
" style="fill:none;stroke:#808080;stroke-dasharray:0.8,1.32;stroke-dashoffset:0;stroke-width:0.8;"/>
     </g>
     <g id="line2d_102">
      <g>
       <use style="stroke:#000000;stroke-width:0.6;" x="144" xlink:href="#md2906bfa15" y="185.4"/>
      </g>
     </g>
    </g>
    <g id="ytick_26">
     <g id="line2d_103">
      <path clip-path="url(#p0d11935743)" d="M 144 165.6 
L 1036.8 165.6 
" style="fill:none;stroke:#808080;stroke-dasharray:0.8,1.32;stroke-dashoffset:0;stroke-width:0.8;"/>
     </g>
     <g id="line2d_104">
      <g>
       <use style="stroke:#000000;stroke-width:0.6;" x="144" xlink:href="#md2906bfa15" y="165.6"/>
      </g>
     </g>
    </g>
    <g id="ytick_27">
     <g id="line2d_105">
      <path clip-path="url(#p0d11935743)" d="M 144 126 
L 1036.8 126 
" style="fill:none;stroke:#808080;stroke-dasharray:0.8,1.32;stroke-dashoffset:0;stroke-width:0.8;"/>
     </g>
     <g id="line2d_106">
      <g>
       <use style="stroke:#000000;stroke-width:0.6;" x="144" xlink:href="#md2906bfa15" y="126"/>
      </g>
     </g>
    </g>
    <g id="ytick_28">
     <g id="line2d_107">
      <path clip-path="url(#p0d11935743)" d="M 144 106.2 
L 1036.8 106.2 
" style="fill:none;stroke:#808080;stroke-dasharray:0.8,1.32;stroke-dashoffset:0;stroke-width:0.8;"/>
     </g>
     <g id="line2d_108">
      <g>
       <use style="stroke:#000000;stroke-width:0.6;" x="144" xlink:href="#md2906bfa15" y="106.2"/>
      </g>
     </g>
    </g>
    <g id="text_15">
     <!-- U, volts -->
     <g transform="translate(115.017187 382.410156)rotate(-90)scale(0.1 -0.1)">
      <defs>
       <path d="M 556 4666 
L 1191 4666 
L 1191 1831 
Q 1191 1081 1462 751 
Q 1734 422 2344 422 
Q 2950 422 3222 751 
Q 3494 1081 3494 1831 
L 3494 4666 
L 4128 4666 
L 4128 1753 
Q 4128 841 3676 375 
Q 3225 -91 2344 -91 
Q 1459 -91 1007 375 
Q 556 841 556 1753 
L 556 4666 
z
" id="DejaVuSans-55" transform="scale(0.015625)"/>
       <path d="M 191 3500 
L 800 3500 
L 1894 563 
L 2988 3500 
L 3597 3500 
L 2284 0 
L 1503 0 
L 191 3500 
z
" id="DejaVuSans-76" transform="scale(0.015625)"/>
       <path d="M 603 4863 
L 1178 4863 
L 1178 0 
L 603 0 
L 603 4863 
z
" id="DejaVuSans-6c" transform="scale(0.015625)"/>
      </defs>
      <use xlink:href="#DejaVuSans-55"/>
      <use x="73.193359" xlink:href="#DejaVuSans-2c"/>
      <use x="104.980469" xlink:href="#DejaVuSans-20"/>
      <use x="136.767578" xlink:href="#DejaVuSans-76"/>
      <use x="195.947266" xlink:href="#DejaVuSans-6f"/>
      <use x="257.128906" xlink:href="#DejaVuSans-6c"/>
      <use x="284.912109" xlink:href="#DejaVuSans-74"/>
      <use x="324.121094" xlink:href="#DejaVuSans-73"/>
     </g>
    </g>
   </g>
   <g id="line2d_109">
    <path clip-path="url(#p0d11935743)" d="M 144 638.622 
L 144.957082 629.91 
L 147.828326 616.842 
L 148.785408 608.13 
L 150.699571 599.418 
L 151.656653 590.706 
L 152.613734 590.706 
L 153.570816 581.994 
L 154.527898 581.994 
L 155.484979 573.282 
L 156.442061 573.282 
L 157.399142 560.214 
L 169.841203 503.586 
L 170.798285 503.586 
L 171.755366 494.874 
L 175.583693 477.45 
L 176.540774 477.45 
L 177.497856 468.738 
L 178.454938 468.738 
L 186.11159 433.89 
L 187.068672 433.89 
L 190.896998 416.466 
L 191.85408 416.466 
L 195.682406 399.042 
L 196.639488 399.042 
L 198.553651 390.33 
L 199.510733 390.33 
L 201.424896 381.618 
L 202.381978 381.618 
L 204.296141 372.906 
L 205.253222 372.906 
L 207.167386 364.194 
L 209.081549 364.194 
L 210.03863 355.482 
L 210.995712 355.482 
L 211.952794 351.126 
L 212.909875 351.126 
L 214.824038 342.414 
L 215.78112 342.414 
L 216.738202 338.058 
L 217.695283 338.058 
L 219.609446 329.346 
L 221.52361 329.346 
L 223.437773 320.634 
L 225.351936 320.634 
L 227.266099 311.922 
L 228.223181 311.922 
L 229.180262 307.566 
L 230.137344 307.566 
L 231.094426 303.21 
L 232.051507 303.21 
L 233.008589 298.854 
L 233.96567 298.854 
L 234.922752 294.498 
L 237.793997 294.498 
L 238.751078 285.786 
L 240.665242 285.786 
L 241.622323 281.43 
L 242.579405 281.43 
L 243.536486 277.074 
L 245.45065 277.074 
L 246.407731 272.718 
L 247.364813 272.718 
L 248.321894 268.362 
L 249.278976 268.362 
L 250.236058 264.006 
L 253.107302 264.006 
L 255.021466 255.294 
L 256.935629 255.294 
L 257.89271 250.938 
L 259.806874 250.938 
L 260.763955 246.582 
L 261.721037 246.582 
L 262.678118 242.226 
L 265.549363 242.226 
L 266.506445 237.87 
L 267.463526 237.87 
L 268.420608 233.514 
L 270.334771 233.514 
L 271.291853 229.158 
L 274.163098 229.158 
L 276.077261 220.446 
L 281.81975 220.446 
L 283.733914 211.734 
L 287.56224 211.734 
L 288.519322 207.378 
L 291.390566 207.378 
L 292.347648 203.022 
L 294.261811 203.022 
L 295.218893 198.666 
L 297.133056 198.666 
L 298.090138 194.31 
L 301.918464 194.31 
L 302.875546 189.954 
L 306.703872 189.954 
L 307.660954 185.598 
L 311.48928 185.598 
L 312.446362 181.242 
L 316.274688 181.242 
L 317.23177 176.886 
L 319.145933 176.886 
L 320.103014 172.53 
L 321.060096 176.886 
L 322.017178 172.53 
L 324.888422 172.53 
L 325.845504 168.174 
L 332.545075 168.174 
L 333.502157 163.818 
L 338.287565 163.818 
L 339.244646 159.462 
L 344.030054 159.462 
L 344.987136 155.106 
L 348.815462 155.106 
L 349.772544 150.75 
L 360.300442 150.75 
L 361.257523 146.394 
L 368.914176 146.394 
L 369.871258 142.038 
L 370.828339 146.394 
L 371.785421 142.038 
L 376.570829 142.038 
L 377.52791 137.682 
L 378.484992 142.038 
L 379.442074 137.682 
L 388.055808 137.682 
L 389.01289 133.326 
L 397.626624 133.326 
L 398.583706 128.97 
L 407.19744 128.97 
L 408.154522 124.614 
L 409.111603 128.97 
L 410.068685 128.97 
L 411.025766 124.614 
L 419.639501 124.614 
L 420.596582 120.258 
L 421.553664 124.614 
L 422.510746 124.614 
L 423.467827 120.258 
L 424.424909 124.614 
L 425.38199 124.614 
L 426.339072 120.258 
L 433.995725 120.258 
L 434.952806 115.902 
L 435.909888 120.258 
L 436.86697 120.258 
L 437.824051 115.902 
L 438.781133 115.902 
L 439.738214 120.258 
L 442.609459 120.258 
L 443.566541 115.902 
L 461.751091 115.902 
L 462.708173 111.546 
L 463.665254 115.902 
L 464.622336 111.546 
L 485.678131 111.546 
L 486.635213 107.19 
L 487.592294 107.19 
L 488.549376 111.546 
L 489.506458 111.546 
L 490.463539 107.19 
L 491.420621 107.19 
L 492.377702 111.546 
L 493.334784 107.19 
L 509.605171 107.19 
L 510.562253 102.834 
L 511.519334 111.546 
L 512.476416 115.902 
L 513.433498 115.902 
L 514.390579 124.614 
L 516.304742 133.326 
L 517.261824 142.038 
L 518.218906 142.038 
L 519.175987 150.75 
L 520.133069 150.75 
L 521.09015 159.462 
L 523.004314 168.174 
L 523.961395 168.174 
L 524.918477 176.886 
L 525.875558 176.886 
L 535.446374 220.446 
L 536.403456 220.446 
L 541.188864 242.226 
L 542.145946 242.226 
L 543.103027 250.938 
L 544.060109 250.938 
L 545.01719 255.294 
L 545.974272 255.294 
L 550.75968 277.074 
L 551.716762 277.074 
L 555.545088 294.498 
L 556.50217 294.498 
L 558.416333 303.21 
L 559.373414 303.21 
L 560.330496 307.566 
L 561.287578 307.566 
L 564.158822 320.634 
L 565.115904 320.634 
L 566.072986 324.99 
L 567.030067 324.99 
L 568.94423 333.702 
L 569.901312 333.702 
L 571.815475 342.414 
L 572.772557 342.414 
L 573.729638 346.77 
L 574.68672 346.77 
L 575.643802 351.126 
L 576.600883 351.126 
L 577.557965 355.482 
L 578.515046 355.482 
L 579.472128 359.838 
L 580.42921 359.838 
L 581.386291 364.194 
L 582.343373 364.194 
L 583.300454 368.55 
L 584.257536 368.55 
L 586.171699 377.262 
L 588.085862 377.262 
L 589.042944 381.618 
L 590.000026 381.618 
L 590.957107 385.974 
L 591.914189 385.974 
L 593.828352 394.686 
L 595.742515 394.686 
L 596.699597 399.042 
L 597.656678 399.042 
L 598.61376 403.398 
L 599.570842 403.398 
L 600.527923 407.754 
L 601.485005 407.754 
L 602.442086 412.11 
L 604.35625 412.11 
L 605.313331 416.466 
L 606.270413 416.466 
L 607.227494 420.822 
L 608.184576 420.822 
L 609.141658 425.178 
L 610.098739 425.178 
L 611.055821 429.534 
L 613.927066 429.534 
L 615.841229 438.246 
L 617.755392 438.246 
L 618.712474 442.602 
L 619.669555 442.602 
L 620.626637 446.958 
L 623.497882 446.958 
L 624.454963 451.314 
L 625.412045 451.314 
L 626.369126 455.67 
L 628.28329 455.67 
L 629.240371 460.026 
L 630.197453 460.026 
L 631.154534 464.382 
L 633.068698 464.382 
L 634.025779 468.738 
L 636.897024 468.738 
L 637.854106 473.094 
L 639.768269 473.094 
L 640.72535 477.45 
L 642.639514 477.45 
L 643.596595 481.806 
L 646.46784 481.806 
L 647.424922 486.162 
L 648.382003 486.162 
L 649.339085 490.518 
L 652.21033 490.518 
L 653.167411 494.874 
L 655.081574 494.874 
L 656.038656 499.23 
L 656.995738 499.23 
L 657.952819 503.586 
L 663.695309 503.586 
L 664.65239 507.942 
L 666.566554 507.942 
L 667.523635 512.298 
L 669.437798 512.298 
L 670.39488 516.654 
L 674.223206 516.654 
L 675.180288 521.01 
L 678.051533 521.01 
L 679.008614 525.366 
L 680.922778 525.366 
L 681.879859 529.722 
L 685.708186 529.722 
L 686.665267 534.078 
L 690.493594 534.078 
L 691.450675 538.434 
L 692.407757 534.078 
L 693.364838 538.434 
L 695.279002 538.434 
L 696.236083 542.79 
L 700.06441 542.79 
L 701.021491 547.146 
L 704.849818 547.146 
L 705.806899 551.502 
L 709.635226 551.502 
L 710.592307 555.858 
L 716.334797 555.858 
L 717.291878 560.214 
L 721.120205 560.214 
L 722.077286 564.57 
L 725.905613 564.57 
L 726.862694 568.926 
L 727.819776 564.57 
L 728.776858 568.926 
L 731.648102 568.926 
L 732.605184 573.282 
L 742.176 573.282 
L 743.133082 577.638 
L 749.832653 577.638 
L 750.789734 581.994 
L 755.575142 581.994 
L 756.532224 586.35 
L 765.145958 586.35 
L 766.10304 590.706 
L 775.673856 590.706 
L 776.630938 595.062 
L 784.28759 595.062 
L 785.244672 599.418 
L 786.201754 595.062 
L 787.158835 599.418 
L 797.686733 599.418 
L 798.643814 603.774 
L 807.257549 603.774 
L 808.21463 608.13 
L 823.527936 608.13 
L 824.485018 612.486 
L 839.798323 612.486 
L 840.755405 616.842 
L 841.712486 612.486 
L 842.669568 616.842 
L 857.982874 616.842 
L 858.939955 621.198 
L 879.038669 621.198 
L 879.99575 625.554 
L 880.952832 621.198 
L 883.824077 621.198 
L 884.781158 625.554 
L 885.73824 625.554 
L 886.695322 621.198 
L 887.652403 625.554 
L 906.794035 625.554 
L 907.751117 629.91 
L 908.708198 625.554 
L 916.364851 625.554 
L 917.321933 629.91 
L 919.236096 629.91 
L 920.193178 625.554 
L 921.150259 629.91 
L 946.991462 629.91 
L 947.948544 634.266 
L 948.905626 629.91 
L 950.819789 629.91 
L 951.77687 634.266 
L 1001.545114 634.266 
L 1002.502195 638.622 
L 1002.502195 638.622 
" style="fill:none;stroke:#000000;stroke-linecap:square;"/>
    <defs>
     <path d="M 0 2.5 
C 0.663008 2.5 1.29895 2.236584 1.767767 1.767767 
C 2.236584 1.29895 2.5 0.663008 2.5 0 
C 2.5 -0.663008 2.236584 -1.29895 1.767767 -1.767767 
C 1.29895 -2.236584 0.663008 -2.5 0 -2.5 
C -0.663008 -2.5 -1.29895 -2.236584 -1.767767 -1.767767 
C -2.236584 -1.29895 -2.5 -0.663008 -2.5 0 
C -2.5 0.663008 -2.236584 1.29895 -1.767767 1.767767 
C -1.29895 2.236584 -0.663008 2.5 0 2.5 
z
" id="m64abb63b35" style="stroke:#000000;"/>
    </defs>
    <g clip-path="url(#p0d11935743)">
     <use style="stroke:#000000;" x="144" xlink:href="#m64abb63b35" y="638.622"/>
     <use style="stroke:#000000;" x="163.141632" xlink:href="#m64abb63b35" y="534.078"/>
     <use style="stroke:#000000;" x="182.283264" xlink:href="#m64abb63b35" y="451.314"/>
     <use style="stroke:#000000;" x="201.424896" xlink:href="#m64abb63b35" y="381.618"/>
     <use style="stroke:#000000;" x="220.566528" xlink:href="#m64abb63b35" y="329.346"/>
     <use style="stroke:#000000;" x="239.70816" xlink:href="#m64abb63b35" y="285.786"/>
     <use style="stroke:#000000;" x="258.849792" xlink:href="#m64abb63b35" y="250.938"/>
     <use style="stroke:#000000;" x="277.991424" xlink:href="#m64abb63b35" y="220.446"/>
     <use style="stroke:#000000;" x="297.133056" xlink:href="#m64abb63b35" y="198.666"/>
     <use style="stroke:#000000;" x="316.274688" xlink:href="#m64abb63b35" y="181.242"/>
     <use style="stroke:#000000;" x="335.41632" xlink:href="#m64abb63b35" y="163.818"/>
     <use style="stroke:#000000;" x="354.557952" xlink:href="#m64abb63b35" y="150.75"/>
     <use style="stroke:#000000;" x="373.699584" xlink:href="#m64abb63b35" y="142.038"/>
     <use style="stroke:#000000;" x="392.841216" xlink:href="#m64abb63b35" y="133.326"/>
     <use style="stroke:#000000;" x="411.982848" xlink:href="#m64abb63b35" y="124.614"/>
     <use style="stroke:#000000;" x="431.12448" xlink:href="#m64abb63b35" y="120.258"/>
     <use style="stroke:#000000;" x="450.266112" xlink:href="#m64abb63b35" y="115.902"/>
     <use style="stroke:#000000;" x="469.407744" xlink:href="#m64abb63b35" y="111.546"/>
     <use style="stroke:#000000;" x="488.549376" xlink:href="#m64abb63b35" y="111.546"/>
     <use style="stroke:#000000;" x="507.691008" xlink:href="#m64abb63b35" y="107.19"/>
     <use style="stroke:#000000;" x="526.83264" xlink:href="#m64abb63b35" y="181.242"/>
     <use style="stroke:#000000;" x="545.974272" xlink:href="#m64abb63b35" y="255.294"/>
     <use style="stroke:#000000;" x="565.115904" xlink:href="#m64abb63b35" y="320.634"/>
     <use style="stroke:#000000;" x="584.257536" xlink:href="#m64abb63b35" y="368.55"/>
     <use style="stroke:#000000;" x="603.399168" xlink:href="#m64abb63b35" y="412.11"/>
     <use style="stroke:#000000;" x="622.5408" xlink:href="#m64abb63b35" y="446.958"/>
     <use style="stroke:#000000;" x="641.682432" xlink:href="#m64abb63b35" y="477.45"/>
     <use style="stroke:#000000;" x="660.824064" xlink:href="#m64abb63b35" y="503.586"/>
     <use style="stroke:#000000;" x="679.965696" xlink:href="#m64abb63b35" y="525.366"/>
     <use style="stroke:#000000;" x="699.107328" xlink:href="#m64abb63b35" y="542.79"/>
     <use style="stroke:#000000;" x="718.24896" xlink:href="#m64abb63b35" y="560.214"/>
     <use style="stroke:#000000;" x="737.390592" xlink:href="#m64abb63b35" y="573.282"/>
     <use style="stroke:#000000;" x="756.532224" xlink:href="#m64abb63b35" y="586.35"/>
     <use style="stroke:#000000;" x="775.673856" xlink:href="#m64abb63b35" y="590.706"/>
     <use style="stroke:#000000;" x="794.815488" xlink:href="#m64abb63b35" y="599.418"/>
     <use style="stroke:#000000;" x="813.95712" xlink:href="#m64abb63b35" y="608.13"/>
     <use style="stroke:#000000;" x="833.098752" xlink:href="#m64abb63b35" y="612.486"/>
     <use style="stroke:#000000;" x="852.240384" xlink:href="#m64abb63b35" y="616.842"/>
     <use style="stroke:#000000;" x="871.382016" xlink:href="#m64abb63b35" y="621.198"/>
     <use style="stroke:#000000;" x="890.523648" xlink:href="#m64abb63b35" y="625.554"/>
     <use style="stroke:#000000;" x="909.66528" xlink:href="#m64abb63b35" y="625.554"/>
     <use style="stroke:#000000;" x="928.806912" xlink:href="#m64abb63b35" y="629.91"/>
     <use style="stroke:#000000;" x="947.948544" xlink:href="#m64abb63b35" y="634.266"/>
     <use style="stroke:#000000;" x="967.090176" xlink:href="#m64abb63b35" y="634.266"/>
     <use style="stroke:#000000;" x="986.231808" xlink:href="#m64abb63b35" y="634.266"/>
    </g>
   </g>
   <g id="patch_3">
    <path d="M 144 640.8 
L 144 86.4 
" style="fill:none;stroke:#000000;stroke-linecap:square;stroke-linejoin:miter;stroke-width:0.8;"/>
   </g>
   <g id="patch_4">
    <path d="M 1036.8 640.8 
L 1036.8 86.4 
" style="fill:none;stroke:#000000;stroke-linecap:square;stroke-linejoin:miter;stroke-width:0.8;"/>
   </g>
   <g id="patch_5">
    <path d="M 144 640.8 
L 1036.8 640.8 
" style="fill:none;stroke:#000000;stroke-linecap:square;stroke-linejoin:miter;stroke-width:0.8;"/>
   </g>
   <g id="patch_6">
    <path d="M 144 86.4 
L 1036.8 86.4 
" style="fill:none;stroke:#000000;stroke-linecap:square;stroke-linejoin:miter;stroke-width:0.8;"/>
   </g>
   <g id="text_16">
    <!-- время зарядки(с): 5.1322 -->
    <g transform="translate(715.392 304.2)scale(0.1 -0.1)">
     <defs>
      <path d="M 1156 1613 
L 1156 459 
L 1975 459 
Q 2369 459 2575 607 
Q 2781 756 2781 1038 
Q 2781 1319 2575 1466 
Q 2369 1613 1975 1613 
L 1156 1613 
z
M 1156 3041 
L 1156 2072 
L 1913 2072 
Q 2238 2072 2444 2201 
Q 2650 2331 2650 2563 
Q 2650 2794 2444 2917 
Q 2238 3041 1913 3041 
L 1156 3041 
z
M 581 3500 
L 1950 3500 
Q 2566 3500 2897 3275 
Q 3228 3050 3228 2634 
Q 3228 2313 3059 2123 
Q 2891 1934 2559 1888 
Q 2956 1813 3175 1575 
Q 3394 1338 3394 981 
Q 3394 513 3033 256 
Q 2672 0 2003 0 
L 581 0 
L 581 3500 
z
" id="DejaVuSans-432" transform="scale(0.015625)"/>
      <path d="M 1159 525 
L 1159 -1331 
L 581 -1331 
L 581 3500 
L 1159 3500 
L 1159 2969 
Q 1341 3281 1617 3432 
Q 1894 3584 2278 3584 
Q 2916 3584 3314 3078 
Q 3713 2572 3713 1747 
Q 3713 922 3314 415 
Q 2916 -91 2278 -91 
Q 1894 -91 1617 61 
Q 1341 213 1159 525 
z
M 3116 1747 
Q 3116 2381 2855 2742 
Q 2594 3103 2138 3103 
Q 1681 3103 1420 2742 
Q 1159 2381 1159 1747 
Q 1159 1113 1420 752 
Q 1681 391 2138 391 
Q 2594 391 2855 752 
Q 3116 1113 3116 1747 
z
" id="DejaVuSans-440" transform="scale(0.015625)"/>
      <path d="M 3597 1894 
L 3597 1613 
L 953 1613 
Q 991 1019 1311 708 
Q 1631 397 2203 397 
Q 2534 397 2845 478 
Q 3156 559 3463 722 
L 3463 178 
Q 3153 47 2828 -22 
Q 2503 -91 2169 -91 
Q 1331 -91 842 396 
Q 353 884 353 1716 
Q 353 2575 817 3079 
Q 1281 3584 2069 3584 
Q 2775 3584 3186 3129 
Q 3597 2675 3597 1894 
z
M 3022 2063 
Q 3016 2534 2758 2815 
Q 2500 3097 2075 3097 
Q 1594 3097 1305 2825 
Q 1016 2553 972 2059 
L 3022 2063 
z
" id="DejaVuSans-435" transform="scale(0.015625)"/>
      <path d="M 581 3500 
L 1422 3500 
L 2416 1156 
L 3413 3500 
L 4247 3500 
L 4247 0 
L 3669 0 
L 3669 2950 
L 2703 672 
L 2128 672 
L 1159 2950 
L 1159 0 
L 581 0 
L 581 3500 
z
" id="DejaVuSans-43c" transform="scale(0.015625)"/>
      <path d="M 1181 2491 
Q 1181 2231 1381 2084 
Q 1581 1938 1953 1938 
L 2728 1938 
L 2728 3041 
L 1953 3041 
Q 1581 3041 1381 2897 
Q 1181 2753 1181 2491 
z
M 363 0 
L 1431 1534 
Q 1069 1616 828 1830 
Q 588 2044 588 2491 
Q 588 2997 923 3248 
Q 1259 3500 1938 3500 
L 3306 3500 
L 3306 0 
L 2728 0 
L 2728 1478 
L 2013 1478 
L 981 0 
L 363 0 
z
" id="DejaVuSans-44f" transform="scale(0.015625)"/>
      <path d="M 2206 1888 
Q 2594 1813 2809 1584 
Q 3025 1356 3025 1019 
Q 3025 478 2622 193 
Q 2219 -91 1475 -91 
Q 1225 -91 961 -47 
Q 697 -3 416 84 
L 416 619 
Q 638 503 903 445 
Q 1169 388 1459 388 
Q 1931 388 2195 563 
Q 2459 738 2459 1019 
Q 2459 1294 2225 1461 
Q 1991 1628 1563 1628 
L 1100 1628 
L 1100 2103 
L 1584 2103 
Q 1947 2103 2158 2242 
Q 2369 2381 2369 2600 
Q 2369 2800 2151 2944 
Q 1934 3088 1563 3088 
Q 1341 3088 1089 3047 
Q 838 3006 534 2916 
L 534 3438 
Q 841 3513 1106 3550 
Q 1372 3588 1609 3588 
Q 2222 3588 2576 3342 
Q 2931 3097 2931 2656 
Q 2931 2366 2743 2164 
Q 2556 1963 2206 1888 
z
" id="DejaVuSans-437" transform="scale(0.015625)"/>
      <path d="M 2194 1759 
Q 1497 1759 1228 1600 
Q 959 1441 959 1056 
Q 959 750 1161 570 
Q 1363 391 1709 391 
Q 2188 391 2477 730 
Q 2766 1069 2766 1631 
L 2766 1759 
L 2194 1759 
z
M 3341 1997 
L 3341 0 
L 2766 0 
L 2766 531 
Q 2569 213 2275 61 
Q 1981 -91 1556 -91 
Q 1019 -91 701 211 
Q 384 513 384 1019 
Q 384 1609 779 1909 
Q 1175 2209 1959 2209 
L 2766 2209 
L 2766 2266 
Q 2766 2663 2505 2880 
Q 2244 3097 1772 3097 
Q 1472 3097 1187 3025 
Q 903 2953 641 2809 
L 641 3341 
Q 956 3463 1253 3523 
Q 1550 3584 1831 3584 
Q 2591 3584 2966 3190 
Q 3341 2797 3341 1997 
z
" id="DejaVuSans-430" transform="scale(0.015625)"/>
      <path d="M 1384 459 
L 3053 459 
L 3053 3041 
L 1844 3041 
L 1844 2603 
Q 1844 1316 1475 628 
L 1384 459 
z
M 550 459 
Q 834 584 959 850 
Q 1266 1509 1266 2838 
L 1266 3500 
L 3631 3500 
L 3631 459 
L 4091 459 
L 4091 -884 
L 3631 -884 
L 3631 0 
L 794 0 
L 794 -884 
L 334 -884 
L 334 459 
L 550 459 
z
" id="DejaVuSans-434" transform="scale(0.015625)"/>
      <path d="M 581 3500 
L 1153 3500 
L 1153 1856 
L 2775 3500 
L 3481 3500 
L 2144 2147 
L 3653 0 
L 3009 0 
L 1769 1766 
L 1153 1141 
L 1153 0 
L 581 0 
L 581 3500 
z
" id="DejaVuSans-43a" transform="scale(0.015625)"/>
      <path d="M 3578 3500 
L 3578 0 
L 3006 0 
L 3006 2809 
L 1319 0 
L 581 0 
L 581 3500 
L 1153 3500 
L 1153 697 
L 2838 3500 
L 3578 3500 
z
" id="DejaVuSans-438" transform="scale(0.015625)"/>
      <path d="M 1984 4856 
Q 1566 4138 1362 3434 
Q 1159 2731 1159 2009 
Q 1159 1288 1364 580 
Q 1569 -128 1984 -844 
L 1484 -844 
Q 1016 -109 783 600 
Q 550 1309 550 2009 
Q 550 2706 781 3412 
Q 1013 4119 1484 4856 
L 1984 4856 
z
" id="DejaVuSans-28" transform="scale(0.015625)"/>
      <path d="M 3122 3366 
L 3122 2828 
Q 2878 2963 2633 3030 
Q 2388 3097 2138 3097 
Q 1578 3097 1268 2742 
Q 959 2388 959 1747 
Q 959 1106 1268 751 
Q 1578 397 2138 397 
Q 2388 397 2633 464 
Q 2878 531 3122 666 
L 3122 134 
Q 2881 22 2623 -34 
Q 2366 -91 2075 -91 
Q 1284 -91 818 406 
Q 353 903 353 1747 
Q 353 2603 823 3093 
Q 1294 3584 2113 3584 
Q 2378 3584 2631 3529 
Q 2884 3475 3122 3366 
z
" id="DejaVuSans-441" transform="scale(0.015625)"/>
      <path d="M 513 4856 
L 1013 4856 
Q 1481 4119 1714 3412 
Q 1947 2706 1947 2009 
Q 1947 1309 1714 600 
Q 1481 -109 1013 -844 
L 513 -844 
Q 928 -128 1133 580 
Q 1338 1288 1338 2009 
Q 1338 2731 1133 3434 
Q 928 4138 513 4856 
z
" id="DejaVuSans-29" transform="scale(0.015625)"/>
      <path d="M 750 794 
L 1409 794 
L 1409 0 
L 750 0 
L 750 794 
z
M 750 3309 
L 1409 3309 
L 1409 2516 
L 750 2516 
L 750 3309 
z
" id="DejaVuSans-3a" transform="scale(0.015625)"/>
      <path d="M 2597 2516 
Q 3050 2419 3304 2112 
Q 3559 1806 3559 1356 
Q 3559 666 3084 287 
Q 2609 -91 1734 -91 
Q 1441 -91 1130 -33 
Q 819 25 488 141 
L 488 750 
Q 750 597 1062 519 
Q 1375 441 1716 441 
Q 2309 441 2620 675 
Q 2931 909 2931 1356 
Q 2931 1769 2642 2001 
Q 2353 2234 1838 2234 
L 1294 2234 
L 1294 2753 
L 1863 2753 
Q 2328 2753 2575 2939 
Q 2822 3125 2822 3475 
Q 2822 3834 2567 4026 
Q 2313 4219 1838 4219 
Q 1578 4219 1281 4162 
Q 984 4106 628 3988 
L 628 4550 
Q 988 4650 1302 4700 
Q 1616 4750 1894 4750 
Q 2613 4750 3031 4423 
Q 3450 4097 3450 3541 
Q 3450 3153 3228 2886 
Q 3006 2619 2597 2516 
z
" id="DejaVuSans-33" transform="scale(0.015625)"/>
     </defs>
     <use xlink:href="#DejaVuSans-432"/>
     <use x="58.935547" xlink:href="#DejaVuSans-440"/>
     <use x="122.412109" xlink:href="#DejaVuSans-435"/>
     <use x="183.935547" xlink:href="#DejaVuSans-43c"/>
     <use x="259.375" xlink:href="#DejaVuSans-44f"/>
     <use x="319.53125" xlink:href="#DejaVuSans-20"/>
     <use x="351.318359" xlink:href="#DejaVuSans-437"/>
     <use x="404.492188" xlink:href="#DejaVuSans-430"/>
     <use x="465.771484" xlink:href="#DejaVuSans-440"/>
     <use x="529.248047" xlink:href="#DejaVuSans-44f"/>
     <use x="589.404297" xlink:href="#DejaVuSans-434"/>
     <use x="658.544922" xlink:href="#DejaVuSans-43a"/>
     <use x="718.945312" xlink:href="#DejaVuSans-438"/>
     <use x="783.935547" xlink:href="#DejaVuSans-28"/>
     <use x="822.949219" xlink:href="#DejaVuSans-441"/>
     <use x="877.929688" xlink:href="#DejaVuSans-29"/>
     <use x="916.943359" xlink:href="#DejaVuSans-3a"/>
     <use x="950.634766" xlink:href="#DejaVuSans-20"/>
     <use x="982.421875" xlink:href="#DejaVuSans-35"/>
     <use x="1046.044922" xlink:href="#DejaVuSans-2e"/>
     <use x="1077.832031" xlink:href="#DejaVuSans-31"/>
     <use x="1141.455078" xlink:href="#DejaVuSans-33"/>
     <use x="1205.078125" xlink:href="#DejaVuSans-32"/>
     <use x="1268.701172" xlink:href="#DejaVuSans-32"/>
    </g>
   </g>
   <g id="text_17">
    <!-- время разрядки(с): 6.8876 -->
    <g transform="translate(715.392 343.8)scale(0.1 -0.1)">
     <defs>
      <path d="M 525 4666 
L 3525 4666 
L 3525 4397 
L 1831 0 
L 1172 0 
L 2766 4134 
L 525 4134 
L 525 4666 
z
" id="DejaVuSans-37" transform="scale(0.015625)"/>
     </defs>
     <use xlink:href="#DejaVuSans-432"/>
     <use x="58.935547" xlink:href="#DejaVuSans-440"/>
     <use x="122.412109" xlink:href="#DejaVuSans-435"/>
     <use x="183.935547" xlink:href="#DejaVuSans-43c"/>
     <use x="259.375" xlink:href="#DejaVuSans-44f"/>
     <use x="319.53125" xlink:href="#DejaVuSans-20"/>
     <use x="351.318359" xlink:href="#DejaVuSans-440"/>
     <use x="414.794922" xlink:href="#DejaVuSans-430"/>
     <use x="476.074219" xlink:href="#DejaVuSans-437"/>
     <use x="529.248047" xlink:href="#DejaVuSans-440"/>
     <use x="592.724609" xlink:href="#DejaVuSans-44f"/>
     <use x="652.880859" xlink:href="#DejaVuSans-434"/>
     <use x="722.021484" xlink:href="#DejaVuSans-43a"/>
     <use x="782.421875" xlink:href="#DejaVuSans-438"/>
     <use x="847.412109" xlink:href="#DejaVuSans-28"/>
     <use x="886.425781" xlink:href="#DejaVuSans-441"/>
     <use x="941.40625" xlink:href="#DejaVuSans-29"/>
     <use x="980.419922" xlink:href="#DejaVuSans-3a"/>
     <use x="1014.111328" xlink:href="#DejaVuSans-20"/>
     <use x="1045.898438" xlink:href="#DejaVuSans-36"/>
     <use x="1109.521484" xlink:href="#DejaVuSans-2e"/>
     <use x="1141.308594" xlink:href="#DejaVuSans-38"/>
     <use x="1204.931641" xlink:href="#DejaVuSans-38"/>
     <use x="1268.554688" xlink:href="#DejaVuSans-37"/>
     <use x="1332.177734" xlink:href="#DejaVuSans-36"/>
    </g>
   </g>
   <g id="text_18">
    <!-- Процесс зарядки и разрядки конденстатора в RC цепи -->
    <g transform="translate(415.76625 80.4)scale(0.12 -0.12)">
     <defs>
      <path d="M 4184 4666 
L 4184 0 
L 3553 0 
L 3553 4134 
L 1259 4134 
L 1259 0 
L 628 0 
L 628 4666 
L 4184 4666 
z
" id="DejaVuSans-41f" transform="scale(0.015625)"/>
      <path d="M 1959 3097 
Q 1497 3097 1228 2736 
Q 959 2375 959 1747 
Q 959 1119 1226 758 
Q 1494 397 1959 397 
Q 2419 397 2687 759 
Q 2956 1122 2956 1747 
Q 2956 2369 2687 2733 
Q 2419 3097 1959 3097 
z
M 1959 3584 
Q 2709 3584 3137 3096 
Q 3566 2609 3566 1747 
Q 3566 888 3137 398 
Q 2709 -91 1959 -91 
Q 1206 -91 779 398 
Q 353 888 353 1747 
Q 353 2609 779 3096 
Q 1206 3584 1959 3584 
z
" id="DejaVuSans-43e" transform="scale(0.015625)"/>
      <path d="M 3603 0 
L 581 0 
L 581 3500 
L 1159 3500 
L 1159 459 
L 3025 459 
L 3025 3500 
L 3603 3500 
L 3603 459 
L 4063 459 
L 4063 -884 
L 3603 -884 
L 3603 0 
z
" id="DejaVuSans-446" transform="scale(0.015625)"/>
      <path d="M 581 3500 
L 1159 3500 
L 1159 2072 
L 3025 2072 
L 3025 3500 
L 3603 3500 
L 3603 0 
L 3025 0 
L 3025 1613 
L 1159 1613 
L 1159 0 
L 581 0 
L 581 3500 
z
" id="DejaVuSans-43d" transform="scale(0.015625)"/>
      <path d="M 188 3500 
L 3541 3500 
L 3541 3041 
L 2147 3041 
L 2147 0 
L 1581 0 
L 1581 3041 
L 188 3041 
L 188 3500 
z
" id="DejaVuSans-442" transform="scale(0.015625)"/>
      <path d="M 2841 2188 
Q 3044 2119 3236 1894 
Q 3428 1669 3622 1275 
L 4263 0 
L 3584 0 
L 2988 1197 
Q 2756 1666 2539 1819 
Q 2322 1972 1947 1972 
L 1259 1972 
L 1259 0 
L 628 0 
L 628 4666 
L 2053 4666 
Q 2853 4666 3247 4331 
Q 3641 3997 3641 3322 
Q 3641 2881 3436 2590 
Q 3231 2300 2841 2188 
z
M 1259 4147 
L 1259 2491 
L 2053 2491 
Q 2509 2491 2742 2702 
Q 2975 2913 2975 3322 
Q 2975 3731 2742 3939 
Q 2509 4147 2053 4147 
L 1259 4147 
z
" id="DejaVuSans-52" transform="scale(0.015625)"/>
      <path d="M 4122 4306 
L 4122 3641 
Q 3803 3938 3442 4084 
Q 3081 4231 2675 4231 
Q 1875 4231 1450 3742 
Q 1025 3253 1025 2328 
Q 1025 1406 1450 917 
Q 1875 428 2675 428 
Q 3081 428 3442 575 
Q 3803 722 4122 1019 
L 4122 359 
Q 3791 134 3420 21 
Q 3050 -91 2638 -91 
Q 1578 -91 968 557 
Q 359 1206 359 2328 
Q 359 3453 968 4101 
Q 1578 4750 2638 4750 
Q 3056 4750 3426 4639 
Q 3797 4528 4122 4306 
z
" id="DejaVuSans-43" transform="scale(0.015625)"/>
      <path d="M 3603 3500 
L 3603 0 
L 3025 0 
L 3025 3041 
L 1159 3041 
L 1159 0 
L 581 0 
L 581 3500 
L 3603 3500 
z
" id="DejaVuSans-43f" transform="scale(0.015625)"/>
     </defs>
     <use xlink:href="#DejaVuSans-41f"/>
     <use x="75.195312" xlink:href="#DejaVuSans-440"/>
     <use x="138.671875" xlink:href="#DejaVuSans-43e"/>
     <use x="199.853516" xlink:href="#DejaVuSans-446"/>
     <use x="267.919922" xlink:href="#DejaVuSans-435"/>
     <use x="329.443359" xlink:href="#DejaVuSans-441"/>
     <use x="384.423828" xlink:href="#DejaVuSans-441"/>
     <use x="439.404297" xlink:href="#DejaVuSans-20"/>
     <use x="471.191406" xlink:href="#DejaVuSans-437"/>
     <use x="524.365234" xlink:href="#DejaVuSans-430"/>
     <use x="585.644531" xlink:href="#DejaVuSans-440"/>
     <use x="649.121094" xlink:href="#DejaVuSans-44f"/>
     <use x="709.277344" xlink:href="#DejaVuSans-434"/>
     <use x="778.417969" xlink:href="#DejaVuSans-43a"/>
     <use x="838.818359" xlink:href="#DejaVuSans-438"/>
     <use x="903.808594" xlink:href="#DejaVuSans-20"/>
     <use x="935.595703" xlink:href="#DejaVuSans-438"/>
     <use x="1000.585938" xlink:href="#DejaVuSans-20"/>
     <use x="1032.373047" xlink:href="#DejaVuSans-440"/>
     <use x="1095.849609" xlink:href="#DejaVuSans-430"/>
     <use x="1157.128906" xlink:href="#DejaVuSans-437"/>
     <use x="1210.302734" xlink:href="#DejaVuSans-440"/>
     <use x="1273.779297" xlink:href="#DejaVuSans-44f"/>
     <use x="1333.935547" xlink:href="#DejaVuSans-434"/>
     <use x="1403.076172" xlink:href="#DejaVuSans-43a"/>
     <use x="1463.476562" xlink:href="#DejaVuSans-438"/>
     <use x="1528.466797" xlink:href="#DejaVuSans-20"/>
     <use x="1560.253906" xlink:href="#DejaVuSans-43a"/>
     <use x="1620.654297" xlink:href="#DejaVuSans-43e"/>
     <use x="1681.835938" xlink:href="#DejaVuSans-43d"/>
     <use x="1747.216797" xlink:href="#DejaVuSans-434"/>
     <use x="1816.357422" xlink:href="#DejaVuSans-435"/>
     <use x="1877.880859" xlink:href="#DejaVuSans-43d"/>
     <use x="1943.261719" xlink:href="#DejaVuSans-441"/>
     <use x="1998.242188" xlink:href="#DejaVuSans-442"/>
     <use x="2056.494141" xlink:href="#DejaVuSans-430"/>
     <use x="2117.773438" xlink:href="#DejaVuSans-442"/>
     <use x="2176.025391" xlink:href="#DejaVuSans-43e"/>
     <use x="2237.207031" xlink:href="#DejaVuSans-440"/>
     <use x="2300.683594" xlink:href="#DejaVuSans-430"/>
     <use x="2361.962891" xlink:href="#DejaVuSans-20"/>
     <use x="2393.75" xlink:href="#DejaVuSans-432"/>
     <use x="2452.685547" xlink:href="#DejaVuSans-20"/>
     <use x="2484.472656" xlink:href="#DejaVuSans-52"/>
     <use x="2548.955078" xlink:href="#DejaVuSans-43"/>
     <use x="2618.779297" xlink:href="#DejaVuSans-20"/>
     <use x="2650.566406" xlink:href="#DejaVuSans-446"/>
     <use x="2718.632812" xlink:href="#DejaVuSans-435"/>
     <use x="2780.15625" xlink:href="#DejaVuSans-43f"/>
     <use x="2845.537109" xlink:href="#DejaVuSans-438"/>
    </g>
   </g>
   <g id="legend_1">
    <g id="patch_7">
     <path d="M 978.757812 109.078125 
L 1029.8 109.078125 
Q 1031.8 109.078125 1031.8 107.078125 
L 1031.8 93.4 
Q 1031.8 91.4 1029.8 91.4 
L 978.757812 91.4 
Q 976.757812 91.4 976.757812 93.4 
L 976.757812 107.078125 
Q 976.757812 109.078125 978.757812 109.078125 
z
" style="fill:#ffffff;opacity:0.8;stroke:#cccccc;stroke-linejoin:miter;"/>
    </g>
    <g id="line2d_110">
     <path d="M 980.757812 99.498438 
L 1000.757812 99.498438 
" style="fill:none;stroke:#000000;stroke-linecap:square;"/>
    </g>
    <g id="line2d_111">
     <g>
      <use style="stroke:#000000;" x="990.757812" xlink:href="#m64abb63b35" y="99.498438"/>
     </g>
    </g>
    <g id="text_19">
     <!-- U(t) -->
     <g transform="translate(1008.757812 102.998438)scale(0.1 -0.1)">
      <use xlink:href="#DejaVuSans-55"/>
      <use x="73.193359" xlink:href="#DejaVuSans-28"/>
      <use x="112.207031" xlink:href="#DejaVuSans-74"/>
      <use x="151.416016" xlink:href="#DejaVuSans-29"/>
     </g>
    </g>
   </g>
  </g>
 </g>
 <defs>
  <clipPath id="p0d11935743">
   <rect height="554.4" width="892.8" x="144" y="86.4"/>
  </clipPath>
 </defs>
</svg>
